<svg id="visual" viewBox="0 0 900 600" width="900" height="600" xmlns="http://www.w3.org/2000/svg" xmlns:xlink="http://www.w3.org/1999/xlink" version="1.1"><rect x="0" y="0" width="900" height="600" fill="#001220"></rect><path d="M0 266L9.3 268C18.7 270 37.3 274 56.2 277.5C75 281 94 284 112.8 286.3C131.7 288.7 150.3 290.3 169 290.7C187.7 291 206.3 290 225 287.8C243.7 285.7 262.3 282.3 281.2 279C300 275.7 319 272.3 337.8 275.2C356.7 278 375.3 287 394 287C412.7 287 431.3 278 450 273.5C468.7 269 487.3 269 506.2 269.7C525 270.3 544 271.7 562.8 277.8C581.7 284 600.3 295 619 292C637.7 289 656.3 272 675 268.7C693.7 265.3 712.3 275.7 731.2 278.7C750 281.7 769 277.3 787.8 271.3C806.7 265.3 825.3 257.7 844 261.3C862.7 265 881.3 280 890.7 287.5L900 295L900 601L890.7 601C881.3 601 862.7 601 844 601C825.3 601 806.7 601 787.8 601C769 601 750 601 731.2 601C712.3 601 693.7 601 675 601C656.3 601 637.7 601 619 601C600.3 601 581.7 601 562.8 601C544 601 525 601 506.2 601C487.3 601 468.7 601 450 601C431.3 601 412.7 601 394 601C375.3 601 356.7 601 337.8 601C319 601 300 601 281.2 601C262.3 601 243.7 601 225 601C206.3 601 187.7 601 169 601C150.3 601 131.7 601 112.8 601C94 601 75 601 56.2 601C37.3 601 18.7 601 9.3 601L0 601Z" fill="#fa7268"></path><path d="M0 301L9.3 302.7C18.7 304.3 37.3 307.7 56.2 313.3C75 319 94 327 112.8 328.8C131.7 330.7 150.3 326.3 169 324.5C187.7 322.7 206.3 323.3 225 327.3C243.7 331.3 262.3 338.7 281.2 342.3C300 346 319 346 337.8 344.2C356.7 342.3 375.3 338.7 394 334.2C412.7 329.7 431.3 324.3 450 319.8C468.7 315.3 487.3 311.7 506.2 308.5C525 305.3 544 302.7 562.8 305C581.7 307.3 600.3 314.7 619 318.8C637.7 323 656.3 324 675 327.2C693.7 330.3 712.3 335.7 731.2 336.7C750 337.7 769 334.3 787.8 332.5C806.7 330.7 825.3 330.3 844 326.2C862.7 322 881.3 314 890.7 310L900 306L900 601L890.7 601C881.3 601 862.7 601 844 601C825.3 601 806.7 601 787.8 601C769 601 750 601 731.2 601C712.3 601 693.7 601 675 601C656.3 601 637.7 601 619 601C600.3 601 581.7 601 562.8 601C544 601 525 601 506.2 601C487.3 601 468.7 601 450 601C431.3 601 412.7 601 394 601C375.3 601 356.7 601 337.8 601C319 601 300 601 281.2 601C262.3 601 243.7 601 225 601C206.3 601 187.7 601 169 601C150.3 601 131.7 601 112.8 601C94 601 75 601 56.2 601C37.3 601 18.7 601 9.3 601L0 601Z" fill="#f36567"></path><path d="M0 370L9.3 367.3C18.7 364.7 37.3 359.3 56.2 362.8C75 366.3 94 378.7 112.8 380.7C131.7 382.7 150.3 374.3 169 369.8C187.7 365.3 206.3 364.7 225 364C243.7 363.3 262.3 362.7 281.2 363.8C300 365 319 368 337.8 366.2C356.7 364.3 375.3 357.7 394 354.3C412.7 351 431.3 351 450 354.2C468.7 357.3 487.3 363.7 506.2 363.5C525 363.3 544 356.7 562.8 357.3C581.7 358 600.3 366 619 368.8C637.7 371.7 656.3 369.3 675 367.8C693.7 366.3 712.3 365.7 731.2 361.7C750 357.7 769 350.3 787.8 347.8C806.7 345.3 825.3 347.7 844 350.7C862.7 353.7 881.3 357.3 890.7 359.2L900 361L900 601L890.7 601C881.3 601 862.7 601 844 601C825.3 601 806.7 601 787.8 601C769 601 750 601 731.2 601C712.3 601 693.7 601 675 601C656.3 601 637.7 601 619 601C600.3 601 581.7 601 562.8 601C544 601 525 601 506.2 601C487.3 601 468.7 601 450 601C431.3 601 412.7 601 394 601C375.3 601 356.7 601 337.8 601C319 601 300 601 281.2 601C262.3 601 243.7 601 225 601C206.3 601 187.7 601 169 601C150.3 601 131.7 601 112.8 601C94 601 75 601 56.2 601C37.3 601 18.7 601 9.3 601L0 601Z" fill="#eb5967"></path><path d="M0 404L9.3 401.8C18.7 399.7 37.3 395.3 56.2 395.7C75 396 94 401 112.8 406C131.7 411 150.3 416 169 414C187.7 412 206.3 403 225 399.5C243.7 396 262.3 398 281.2 397.5C300 397 319 394 337.8 396.8C356.7 399.7 375.3 408.3 394 412.3C412.7 416.3 431.3 415.7 450 411.5C468.7 407.3 487.3 399.7 506.2 400.3C525 401 544 410 562.8 414.3C581.7 418.7 600.3 418.3 619 419.2C637.7 420 656.3 422 675 423.2C693.7 424.3 712.3 424.7 731.2 426.2C750 427.7 769 430.3 787.8 424.8C806.7 419.3 825.3 405.7 844 399.8C862.7 394 881.3 396 890.7 397L900 398L900 601L890.7 601C881.3 601 862.7 601 844 601C825.3 601 806.7 601 787.8 601C769 601 750 601 731.2 601C712.3 601 693.7 601 675 601C656.3 601 637.7 601 619 601C600.3 601 581.7 601 562.8 601C544 601 525 601 506.2 601C487.3 601 468.7 601 450 601C431.3 601 412.7 601 394 601C375.3 601 356.7 601 337.8 601C319 601 300 601 281.2 601C262.3 601 243.7 601 225 601C206.3 601 187.7 601 169 601C150.3 601 131.7 601 112.8 601C94 601 75 601 56.2 601C37.3 601 18.7 601 9.3 601L0 601Z" fill="#e34c67"></path><path d="M0 452L9.3 454.7C18.7 457.3 37.3 462.7 56.2 465C75 467.3 94 466.7 112.8 466.8C131.7 467 150.3 468 169 469.7C187.7 471.3 206.3 473.7 225 469C243.7 464.3 262.3 452.7 281.2 446.8C300 441 319 441 337.8 443.8C356.7 446.7 375.3 452.3 394 452C412.7 451.7 431.3 445.3 450 447.7C468.7 450 487.3 461 506.2 462C525 463 544 454 562.8 453C581.7 452 600.3 459 619 460.7C637.7 462.3 656.3 458.7 675 458.3C693.7 458 712.3 461 731.2 458.7C750 456.3 769 448.7 787.8 446.8C806.7 445 825.3 449 844 451.3C862.7 453.7 881.3 454.3 890.7 454.7L900 455L900 601L890.7 601C881.3 601 862.7 601 844 601C825.3 601 806.7 601 787.8 601C769 601 750 601 731.2 601C712.3 601 693.7 601 675 601C656.3 601 637.7 601 619 601C600.3 601 581.7 601 562.8 601C544 601 525 601 506.2 601C487.3 601 468.7 601 450 601C431.3 601 412.7 601 394 601C375.3 601 356.7 601 337.8 601C319 601 300 601 281.2 601C262.3 601 243.7 601 225 601C206.3 601 187.7 601 169 601C150.3 601 131.7 601 112.8 601C94 601 75 601 56.2 601C37.3 601 18.7 601 9.3 601L0 601Z" fill="#da3f67"></path><path d="M0 493L9.3 491.5C18.7 490 37.3 487 56.2 488.8C75 490.7 94 497.3 112.8 498.8C131.7 500.3 150.3 496.7 169 497.2C187.7 497.7 206.3 502.3 225 502.2C243.7 502 262.3 497 281.2 493.2C300 489.3 319 486.7 337.8 490.2C356.7 493.7 375.3 503.3 394 507.2C412.7 511 431.3 509 450 507.8C468.7 506.7 487.3 506.3 506.2 505C525 503.7 544 501.3 562.8 500.2C581.7 499 600.3 499 619 501.3C637.7 503.7 656.3 508.3 675 511.2C693.7 514 712.3 515 731.2 515.8C750 516.7 769 517.3 787.8 513.7C806.7 510 825.3 502 844 499C862.7 496 881.3 498 890.7 499L900 500L900 601L890.7 601C881.3 601 862.7 601 844 601C825.3 601 806.7 601 787.8 601C769 601 750 601 731.2 601C712.3 601 693.7 601 675 601C656.3 601 637.7 601 619 601C600.3 601 581.7 601 562.8 601C544 601 525 601 506.2 601C487.3 601 468.7 601 450 601C431.3 601 412.7 601 394 601C375.3 601 356.7 601 337.8 601C319 601 300 601 281.2 601C262.3 601 243.7 601 225 601C206.3 601 187.7 601 169 601C150.3 601 131.7 601 112.8 601C94 601 75 601 56.2 601C37.3 601 18.7 601 9.3 601L0 601Z" fill="#d03267"></path><path d="M0 560L9.3 558.2C18.7 556.3 37.3 552.7 56.2 550.8C75 549 94 549 112.8 547.3C131.7 545.7 150.3 542.3 169 543C187.7 543.7 206.3 548.3 225 551.3C243.7 554.3 262.3 555.7 281.2 554.7C300 553.7 319 550.3 337.8 550.8C356.7 551.3 375.3 555.7 394 557.5C412.7 559.3 431.3 558.7 450 557.5C468.7 556.3 487.3 554.7 506.2 551.5C525 548.3 544 543.7 562.8 541.2C581.7 538.7 600.3 538.3 619 537.5C637.7 536.7 656.3 535.3 675 535.8C693.7 536.3 712.3 538.7 731.2 540.2C750 541.7 769 542.3 787.8 543.8C806.7 545.3 825.3 547.7 844 546.2C862.7 544.7 881.3 539.3 890.7 536.7L900 534L900 601L890.7 601C881.3 601 862.7 601 844 601C825.3 601 806.7 601 787.8 601C769 601 750 601 731.2 601C712.3 601 693.7 601 675 601C656.3 601 637.7 601 619 601C600.3 601 581.7 601 562.8 601C544 601 525 601 506.2 601C487.3 601 468.7 601 450 601C431.3 601 412.7 601 394 601C375.3 601 356.7 601 337.8 601C319 601 300 601 281.2 601C262.3 601 243.7 601 225 601C206.3 601 187.7 601 169 601C150.3 601 131.7 601 112.8 601C94 601 75 601 56.2 601C37.3 601 18.7 601 9.3 601L0 601Z" fill="#c62368"></path></svg>